<svg width="58" height="58" viewBox="0 0 58 58" fill="none" xmlns="http://www.w3.org/2000/svg">
<path d="M47.3515 38.7303C45.8728 40.3297 43.8194 41.2761 41.6429 41.3615C39.4665 41.4469 37.3452 40.6641 35.7458 39.1855C34.2683 37.8363 33.345 35.9861 33.1553 33.9943C31.2957 34.6397 29.2928 34.7525 27.3725 34.32C25.4522 33.8874 23.6911 32.9268 22.2879 31.5464C20.8847 30.166 19.8952 28.4209 19.4312 26.508C18.9672 24.5951 19.0471 22.5906 19.662 20.7207C18.6678 20.6078 17.7386 20.17 17.0186 19.4753C16.5095 19.0046 16.0981 18.4383 15.8078 17.8086C15.5176 17.179 15.3543 16.4983 15.3271 15.8055C15.2999 15.1127 15.4095 14.4213 15.6495 13.7709C15.8895 13.1204 16.2553 12.5236 16.7259 12.0145C17.4199 11.242 18.3319 10.698 19.3414 10.4546C20.351 10.2112 21.4106 10.2797 22.3804 10.6511C22.7444 9.88982 23.245 9.20184 23.8575 8.62137C25.1235 7.27101 26.7715 6.33918 28.5813 5.95048C30.3911 5.56177 32.2764 5.7347 33.9853 6.4461C35.6941 7.1575 37.1452 8.37349 38.1445 9.93161C39.1438 11.4897 39.6438 13.3158 39.5775 15.1656C41.6708 15.4128 43.6318 16.3168 45.1792 17.748C46.5351 19.0001 47.4779 20.6352 47.8822 22.436C48.2865 24.2368 48.1333 26.1181 47.4428 27.8297C48.7939 29.3287 49.5341 31.2797 49.5172 33.2977C49.5003 35.3157 48.7276 37.2541 47.3515 38.7303Z" stroke="white" stroke-opacity="0.5" stroke-width="2" stroke-linecap="round" stroke-linejoin="round"/>
<path d="M35.7459 39.1856C35.7459 39.1856 29.5732 35.2765 18.5224 47.2297L13.0304 42.1523C13.0304 42.1523 21.0194 34.1591 19.3187 25.1969" stroke="white" stroke-opacity="0.5" stroke-width="2" stroke-linecap="round" stroke-linejoin="round"/>
</svg>
