<svg width="46" height="43" viewBox="0 0 46 43" fill="none" xmlns="http://www.w3.org/2000/svg">
<path d="M2.5001 40.5C1.50596 39.3712 0.971126 37.9108 1.0012 36.407C1.03128 34.9032 1.62407 33.4652 2.66254 32.3771L24.2694 7.35868C24.9966 6.4141 25.9087 5.62762 26.95 5.04728C27.9912 4.46694 29.1398 4.10491 30.3257 3.98328C31.5115 3.86166 32.7098 3.98299 33.8472 4.33987C34.9846 4.69676 36.0373 5.28171 36.9411 6.05902C37.7184 6.96281 38.3033 8.01554 38.6602 9.15294C39.0171 10.2903 39.1384 11.4886 39.0168 12.6744C38.8952 13.8603 38.5332 15.0089 37.9528 16.0502C37.3725 17.0914 36.586 18.0035 35.6414 18.7307L10.623 40.3376C9.53487 41.376 8.09697 41.9688 6.59314 41.9989C5.08932 42.029 3.62886 41.4941 2.5001 40.5Z" stroke="white" stroke-opacity="0.5" stroke-width="2" stroke-linecap="round" stroke-linejoin="round"/>
<path d="M5.09937 29.4531L8.02361 32.5398" stroke="white" stroke-opacity="0.5" stroke-width="2" stroke-linecap="round" stroke-linejoin="round"/>
<path d="M22.8073 11.9072L25.7315 14.8315" stroke="white" stroke-opacity="0.5" stroke-width="2" stroke-linecap="round" stroke-linejoin="round"/>
<path d="M20.2079 26.5283L23.1321 29.4526" stroke="white" stroke-opacity="0.5" stroke-width="2" stroke-linecap="round" stroke-linejoin="round"/>
<path d="M36.9412 6.05895C37.3543 4.51533 38.2962 3.1657 39.6025 2.24535C40.9088 1.325 42.4967 0.892344 44.0893 1.02278" stroke="white" stroke-opacity="0.5" stroke-width="2" stroke-linecap="round" stroke-linejoin="round"/>
</svg>
