<svg width="68" height="68" viewBox="0 0 68 68" fill="none" xmlns="http://www.w3.org/2000/svg">
<g opacity="0.5">
<path d="M8.90247 29.0625L57.5652 37.9256L56.7242 42.5432C55.892 47.1122 53.2789 51.1635 49.4598 53.8058C45.6406 56.4481 40.9282 57.4651 36.3592 56.6329L22.1511 54.0451C17.5821 53.213 13.5309 50.5999 10.8885 46.7807C8.24622 42.9615 7.22928 38.2491 8.06144 33.6801L8.90247 29.0625Z" stroke="white" stroke-width="2" stroke-linecap="round" stroke-linejoin="round"/>
<path d="M14.2859 8.57422L14.9962 8.7036C18.2463 9.29554 21.1281 11.1543 23.0077 13.8711C24.8873 16.5878 25.6108 19.9399 25.0188 23.19L24.3084 23.0606C21.0583 22.4687 18.1765 20.6099 16.2969 17.8931C14.4173 15.1764 13.6939 11.8243 14.2859 8.57422Z" stroke="white" stroke-width="2" stroke-linejoin="round"/>
<path d="M31.6089 15.2155C32.1864 13.684 33.2794 12.4016 34.7 11.5887C36.1206 10.7759 37.78 10.4833 39.3929 10.7614C41.2075 11.1384 42.8077 12.1988 43.8622 13.723C44.9167 15.2471 45.3448 17.1184 45.0578 18.9494C44.8951 19.666 44.6454 20.3599 44.3144 21.0159L46.5104 21.0489C48.325 21.4259 49.9251 22.4863 50.9796 24.0104C52.0341 25.5346 52.4622 27.4058 52.1752 29.2369" stroke="white" stroke-width="2" stroke-linecap="round" stroke-linejoin="round"/>
<path d="M42.6654 28.0561C40.7813 27.713 39.1107 26.6354 38.021 25.0605C36.9314 23.4856 36.5121 21.5423 36.8552 19.6582" stroke="white" stroke-width="2" stroke-linecap="round" stroke-linejoin="round"/>
</g>
</svg>
