<svg width="53" height="50" viewBox="0 0 53 50" fill="none" xmlns="http://www.w3.org/2000/svg">
<g opacity="0.5">
<path d="M50.8971 17.1738C50.9249 20.1319 50.0251 23.0244 48.324 25.4447C46.759 24.6325 45.3323 23.5779 44.0967 22.3201C41.5969 20.0388 40.081 16.8755 39.8692 13.4978C36.4904 13.0948 33.332 11.6123 30.8632 9.27051C29.6172 7.99574 28.6199 6.49973 27.9224 4.85931C30.4011 3.30395 33.2669 2.47608 36.1933 2.46996C38.2865 2.43267 40.3608 2.87268 42.2587 3.75657C45.5038 5.25757 48.1096 7.86337 49.6106 11.1085C50.4266 13.0284 50.8634 15.088 50.8971 17.1738Z" stroke="#E8E8E8" stroke-width="2" stroke-linecap="round" stroke-linejoin="round"/>
<path d="M45.7509 5.96257C45.7509 5.96257 50.162 6.51394 52 1" stroke="#E8E8E8" stroke-width="2" stroke-linecap="round" stroke-linejoin="round"/>
<path d="M25.7169 14.6006C20.9259 20.4129 14.6321 24.7994 7.52083 27.2827C-2.77185 30.7748 -0.750096 48.0519 12.6672 48.2357C26.0844 48.4195 31.0469 43.6407 39.3179 29.672" stroke="#E8E8E8" stroke-width="2" stroke-linecap="round" stroke-linejoin="round"/>
</g>
</svg>
