<svg width="18" height="17" viewBox="0 0 18 17" fill="none" xmlns="http://www.w3.org/2000/svg">
<path d="M13.4493 3.05033C13.2516 3.05033 13.0582 3.10897 12.8938 3.21886C12.7293 3.32874 12.6012 3.48492 12.5255 3.66764C12.4498 3.85037 12.43 4.05143 12.4686 4.24542C12.5071 4.4394 12.6024 4.61758 12.7422 4.75743C12.8821 4.89728 13.0603 4.99253 13.2543 5.03111C13.4482 5.0697 13.6493 5.04989 13.832 4.97421C14.0148 4.89852 14.1709 4.77034 14.2808 4.6059C14.3907 4.44145 14.4493 4.24811 14.4493 4.05033C14.4493 3.78511 14.344 3.53076 14.1565 3.34322C13.9689 3.15568 13.7146 3.05033 13.4493 3.05033ZM17.2827 5.06699C17.2665 4.37557 17.137 3.69149 16.8993 3.04199C16.6875 2.48627 16.3577 1.98306 15.9327 1.56699C15.52 1.13985 15.0156 0.812139 14.4577 0.608659C13.8099 0.363793 13.1251 0.231334 12.4327 0.216992C11.5493 0.166992 11.266 0.166992 8.99935 0.166992C6.73268 0.166992 6.44935 0.166992 5.56602 0.216992C4.87364 0.231334 4.1888 0.363793 3.54102 0.608659C2.98408 0.814199 2.48013 1.14163 2.06602 1.56699C1.63887 1.97964 1.31116 2.48403 1.10768 3.04199C0.862816 3.68978 0.730357 4.37462 0.716016 5.06699C0.666016 5.95033 0.666016 6.23366 0.666016 8.50033C0.666016 10.767 0.666016 11.0503 0.716016 11.9337C0.730357 12.626 0.862816 13.3109 1.10768 13.9587C1.31116 14.5166 1.63887 15.021 2.06602 15.4337C2.48013 15.859 2.98408 16.1865 3.54102 16.392C4.1888 16.6369 4.87364 16.7693 5.56602 16.7837C6.44935 16.8337 6.73268 16.8337 8.99935 16.8337C11.266 16.8337 11.5493 16.8337 12.4327 16.7837C13.1251 16.7693 13.8099 16.6369 14.4577 16.392C15.0156 16.1885 15.52 15.8608 15.9327 15.4337C16.3596 15.0191 16.6896 14.5155 16.8993 13.9587C17.137 13.3092 17.2665 12.6251 17.2827 11.9337C17.2827 11.0503 17.3327 10.767 17.3327 8.50033C17.3327 6.23366 17.3327 5.95033 17.2827 5.06699ZM15.7827 11.8337C15.7766 12.3626 15.6808 12.8867 15.4993 13.3837C15.3663 13.7463 15.1526 14.074 14.8743 14.342C14.6041 14.6174 14.277 14.8307 13.916 14.967C13.4191 15.1485 12.895 15.2443 12.366 15.2503C11.5327 15.292 11.2243 15.3003 9.03268 15.3003C6.84102 15.3003 6.53268 15.3003 5.69935 15.2503C5.15009 15.2606 4.60318 15.176 4.08268 15.0003C3.7375 14.8571 3.42548 14.6443 3.16602 14.3753C2.88942 14.1076 2.67839 13.7797 2.54935 13.417C2.3459 12.913 2.23305 12.3769 2.21602 11.8337C2.21602 11.0003 2.16602 10.692 2.16602 8.50033C2.16602 6.30866 2.16602 6.00033 2.21602 5.16699C2.21975 4.6262 2.31847 4.09028 2.50768 3.58366C2.65439 3.23192 2.87957 2.91837 3.16602 2.66699C3.41919 2.38047 3.73209 2.15291 4.08268 2.00033C4.59064 1.81703 5.12601 1.72123 5.66602 1.71699C6.49935 1.71699 6.80768 1.66699 8.99935 1.66699C11.191 1.66699 11.4993 1.66699 12.3327 1.71699C12.8617 1.72306 13.3858 1.81886 13.8827 2.00033C14.2614 2.14087 14.6013 2.36936 14.8743 2.66699C15.1474 2.92297 15.3608 3.23594 15.4993 3.58366C15.6846 4.0911 15.7804 4.62681 15.7827 5.16699C15.8243 6.00033 15.8327 6.30866 15.8327 8.50033C15.8327 10.692 15.8243 11.0003 15.7827 11.8337ZM8.99935 4.22533C8.15419 4.22697 7.32848 4.4791 6.62656 4.94984C5.92464 5.42058 5.378 6.08882 5.05571 6.87012C4.73342 7.65142 4.64995 8.51071 4.81584 9.33943C4.98174 10.1682 5.38955 10.9291 5.98775 11.5261C6.58595 12.1232 7.34769 12.5295 8.17673 12.6938C9.00577 12.8581 9.8649 12.7729 10.6456 12.4491C11.4262 12.1253 12.0934 11.5774 12.5628 10.8745C13.0322 10.1717 13.2827 9.34548 13.2827 8.50033C13.2838 7.93791 13.1737 7.38083 12.9587 6.86112C12.7437 6.34141 12.4281 5.86933 12.0301 5.47203C11.632 5.07474 11.1593 4.76006 10.6392 4.5461C10.1191 4.33214 9.56176 4.22313 8.99935 4.22533ZM8.99935 11.2753C8.45051 11.2753 7.91399 11.1126 7.45764 10.8077C7.0013 10.5027 6.64562 10.0693 6.43558 9.56227C6.22555 9.05521 6.1706 8.49725 6.27767 7.95895C6.38474 7.42065 6.64904 6.92619 7.03713 6.5381C7.42522 6.15001 7.91968 5.88572 8.45797 5.77865C8.99627 5.67157 9.55423 5.72653 10.0613 5.93656C10.5684 6.14659 11.0018 6.50227 11.3067 6.95862C11.6116 7.41496 11.7743 7.95148 11.7743 8.50033C11.7743 8.86474 11.7026 9.22559 11.5631 9.56227C11.4237 9.89895 11.2193 10.2049 10.9616 10.4625C10.7039 10.7202 10.398 10.9246 10.0613 11.0641C9.72462 11.2035 9.36377 11.2753 8.99935 11.2753Z" fill="#151515"/>
</svg>
