<svg width="64" height="65" viewBox="0 0 64 65" fill="none" xmlns="http://www.w3.org/2000/svg">
<path d="M36.6869 39.1078C37.2254 39.7358 37.828 40.3058 38.4847 40.8088C40.5816 42.2691 42.0252 44.4908 42.5078 47.0001C42.8329 48.944 42.6392 50.9393 41.9464 52.7844C41.2536 54.6295 40.0862 56.2592 38.5621 57.5088C37.0204 58.7009 35.1861 59.4559 33.2519 59.6944C31.3177 59.9328 29.3549 59.6458 27.5699 58.8637C25.2522 57.809 23.3879 55.9605 22.3134 53.652L21.2008 51.4068C15.7707 41.1928 19.1448 45.4412 10.4256 37.8393L8.59949 36.3843C7.29247 35.4054 6.22744 34.1397 5.48633 32.6846C4.74522 31.2295 4.34779 29.6238 4.32463 27.991C4.30147 26.3582 4.65322 24.7419 5.35277 23.2664C6.05231 21.7908 7.08103 20.4954 8.35977 19.4799C9.63851 18.4643 11.1332 17.7556 12.7288 17.4084C14.3244 17.0611 15.9784 17.0845 17.5636 17.4768C19.1487 17.869 20.6227 18.6197 21.8722 19.6711C23.1217 20.7224 24.1134 22.0464 24.7709 23.5411C25.0755 24.248 25.4581 24.9186 25.9117 25.5404C31.1241 35.4803 28.2942 31.9171 36.6869 39.1078Z" stroke="white" stroke-opacity="0.5" stroke-width="2" stroke-linecap="round" stroke-linejoin="round"/>
<path d="M45.2039 34.3552C46.3721 31.7998 46.9873 29.0265 47.0094 26.2168C47.5854 17.9373 43.7557 11.1455 38.8098 10.8273C33.8639 10.509 31.2239 15.0641 29.8899 21.2637" stroke="white" stroke-opacity="0.5" stroke-width="2" stroke-linecap="round" stroke-linejoin="round"/>
<path d="M40.2287 11.4883L37.0249 28.5593" stroke="white" stroke-opacity="0.5" stroke-width="2" stroke-linecap="round" stroke-linejoin="round"/>
</svg>
