<svg width="52" height="59" viewBox="0 0 52 59" fill="none" xmlns="http://www.w3.org/2000/svg">
<path d="M43.1874 36.6194C41.6619 41.1617 38.4801 44.962 34.2767 47.2623C30.0733 49.5627 25.1572 50.194 20.509 49.0302C15.8608 47.8665 11.8221 44.9933 9.19846 40.9838C6.5748 36.9742 5.55899 32.1229 6.35372 27.3976C7.06271 23.7011 8.84136 20.2941 11.469 17.5992C14.0966 14.9043 17.4577 13.0401 21.1351 12.238C22.4805 11.9532 23.7243 11.3112 24.7358 10.3795C25.7473 9.44769 26.489 8.26063 26.883 6.94304L27.7818 4.05388L37.9787 7.22601L37.1328 9.94516C36.7423 11.2808 36.691 12.6929 36.9839 14.0534C37.2767 15.4138 37.9043 16.6797 38.8098 17.7363C41.1631 20.2037 42.8108 23.2576 43.5808 26.5792C44.3508 29.9008 44.2149 33.3682 43.1874 36.6194Z" stroke="white" stroke-opacity="0.5" stroke-width="2" stroke-linecap="round" stroke-linejoin="round"/>
<path d="M27.2234 23.8242L22.7295 38.2699" stroke="white" stroke-opacity="0.5" stroke-width="2" stroke-linecap="round" stroke-linejoin="round"/>
<path d="M18.216 21.0224C14.9118 25.0782 13.3019 30.2536 13.7222 35.4681" stroke="white" stroke-opacity="0.5" stroke-width="2" stroke-linecap="round" stroke-linejoin="round"/>
<path d="M36.2306 26.626C36.6509 31.8405 35.041 37.0158 31.7367 41.0717" stroke="white" stroke-opacity="0.5" stroke-width="2" stroke-linecap="round" stroke-linejoin="round"/>
<path d="M18.1298 53.0564L19.3458 49.1475" stroke="white" stroke-opacity="0.5" stroke-width="2" stroke-linecap="round" stroke-linejoin="round"/>
<path d="M19.3458 49.1475L22.2388 53.0298" stroke="white" stroke-opacity="0.5" stroke-width="2" stroke-linecap="round" stroke-linejoin="round"/>
<path d="M19.3459 49.1474L14.9309 50.7564" stroke="white" stroke-opacity="0.5" stroke-width="2" stroke-linecap="round" stroke-linejoin="round"/>
</svg>
