<svg width="18" height="16" viewBox="0 0 18 16" fill="none" xmlns="http://www.w3.org/2000/svg">
<path fill-rule="evenodd" clip-rule="evenodd" d="M3.82278 9.18218C3.85859 9.19411 3.89541 9.20276 3.93278 9.20801C4.16855 9.76357 4.403 10.3197 4.63612 10.8763C5.05528 11.878 5.47778 12.9097 5.57028 13.2063C5.68612 13.5713 5.80778 13.8197 5.94111 13.9897C6.01028 14.0763 6.08945 14.153 6.18278 14.2113C6.2314 14.2418 6.28342 14.2664 6.33778 14.2847C6.60445 14.3847 6.84778 14.343 7.00028 14.2922C7.08977 14.2616 7.17493 14.2196 7.25362 14.1672L7.25778 14.1655L9.61278 12.6972L12.3336 14.7822C12.3736 14.813 12.4169 14.8388 12.4636 14.8597C12.7903 15.0013 13.1069 15.0513 13.4053 15.0113C13.702 14.9697 13.9378 14.8455 14.1136 14.7047C14.3155 14.5419 14.4765 14.3342 14.5836 14.098L14.5911 14.0797L14.5936 14.073L14.5953 14.0697V14.068L14.5961 14.0672C14.6106 14.0313 14.6218 13.9942 14.6294 13.9563L17.1128 1.43552C17.1206 1.39544 17.1245 1.35469 17.1244 1.31385C17.1244 0.947182 16.9861 0.598016 16.6619 0.387183C16.3836 0.206349 16.0744 0.198016 15.8786 0.213016C15.6686 0.229682 15.4736 0.281349 15.3428 0.323016C15.2695 0.346228 15.1973 0.37236 15.1261 0.401349L15.1169 0.405516L1.18862 5.86885L1.18695 5.86968C1.13982 5.88702 1.0934 5.9062 1.04778 5.92718C0.937333 5.97684 0.831384 6.03595 0.731115 6.10385C0.541948 6.23302 0.106115 6.58802 0.180282 7.17468C0.238615 7.64135 0.558615 7.92885 0.754448 8.06718C0.861115 8.14302 0.962782 8.19718 1.03778 8.23302C1.07112 8.24968 1.14278 8.27802 1.17361 8.29135L1.18195 8.29385L3.82278 9.18218ZM15.6044 1.55552H15.6028C15.5956 1.5587 15.5884 1.56176 15.5811 1.56468L1.63612 7.03552C1.62894 7.03842 1.62172 7.04119 1.61445 7.04385L1.60611 7.04635C1.58064 7.05636 1.55562 7.06748 1.53112 7.07968C1.55431 7.09297 1.57824 7.10493 1.60278 7.11552L4.22111 7.99718C4.2679 8.01295 4.31266 8.03421 4.35445 8.06051L13.0019 2.99802L13.0103 2.99385C13.0439 2.97344 13.0783 2.95453 13.1136 2.93718C13.1736 2.90635 13.2694 2.86135 13.3778 2.82802C13.4528 2.80468 13.6753 2.73885 13.9153 2.81635C14.0426 2.85647 14.156 2.93159 14.2427 3.03312C14.3293 3.13464 14.3857 3.25849 14.4053 3.39052C14.4363 3.50614 14.4372 3.6278 14.4078 3.74385C14.3494 3.97302 14.1894 4.15135 14.0428 4.28802C13.9178 4.40468 12.2969 5.96802 10.6978 7.51135L8.52028 9.61135L8.13278 9.98635L13.0261 13.738C13.0922 13.7657 13.1639 13.7772 13.2353 13.7713C13.2712 13.7665 13.3051 13.7514 13.3328 13.728C13.3666 13.6995 13.3955 13.6657 13.4186 13.628L13.4203 13.6272L15.8286 1.48302C15.7527 1.50126 15.6784 1.52522 15.6061 1.55468L15.6044 1.55552ZM8.55362 11.8838L7.57695 11.1355L7.34028 12.6397L8.55362 11.8838ZM6.68112 9.65051L7.65195 8.71301L9.82945 6.61135L10.6403 5.82968L5.20695 9.01052L5.23611 9.07885C5.57879 9.88837 5.91768 10.6995 6.25278 11.5122L6.48862 10.0122C6.50996 9.87306 6.57781 9.74611 6.68112 9.65051Z" fill="#151515"/>
</svg>
