<svg width="18" height="17" viewBox="0 0 18 17" fill="none" xmlns="http://www.w3.org/2000/svg">
<path d="M14.8737 2.59204C14.1097 1.82031 13.1997 1.20843 12.1967 0.792084C11.1938 0.375737 10.118 0.163259 9.03203 0.167042C4.48203 0.167042 0.773698 3.87537 0.773698 8.42537C0.773698 9.88371 1.15703 11.3004 1.8737 12.5504L0.707031 16.8337L5.08203 15.6837C6.29036 16.342 7.6487 16.692 9.03203 16.692C13.582 16.692 17.2904 12.9837 17.2904 8.43371C17.2904 6.22537 16.432 4.15038 14.8737 2.59204ZM9.03203 15.292C7.7987 15.292 6.59036 14.9587 5.53203 14.3337L5.28203 14.1837L2.68203 14.867L3.3737 12.3337L3.20703 12.0754C2.52182 10.9812 2.15798 9.71641 2.15703 8.42537C2.15703 4.64204 5.24036 1.55871 9.0237 1.55871C10.857 1.55871 12.582 2.27538 13.8737 3.57538C14.5133 4.21201 15.0201 4.96926 15.3649 5.80323C15.7096 6.6372 15.8854 7.5313 15.882 8.43371C15.8987 12.217 12.8154 15.292 9.03203 15.292ZM12.7987 10.1587C12.5904 10.0587 11.5737 9.55871 11.3904 9.48371C11.1987 9.41704 11.0654 9.38371 10.9237 9.58371C10.782 9.79204 10.3904 10.2587 10.2737 10.392C10.157 10.5337 10.032 10.5504 9.8237 10.442C9.61536 10.342 8.9487 10.117 8.16536 9.41704C7.5487 8.86704 7.14036 8.19204 7.01536 7.98371C6.8987 7.77537 6.9987 7.66704 7.10703 7.55871C7.1987 7.46704 7.31536 7.31704 7.41536 7.20037C7.51536 7.08371 7.55703 6.99204 7.6237 6.85871C7.69036 6.71704 7.65703 6.60038 7.60703 6.50038C7.55703 6.40038 7.14036 5.38371 6.9737 4.96704C6.80703 4.56704 6.63203 4.61704 6.50703 4.60871H6.10703C5.96536 4.60871 5.7487 4.65871 5.55703 4.86704C5.3737 5.07537 4.84036 5.57538 4.84036 6.59204C4.84036 7.60871 5.58203 8.59204 5.68203 8.72538C5.78203 8.86704 7.14036 10.9504 9.20703 11.842C9.6987 12.0587 10.082 12.1837 10.382 12.2754C10.8737 12.4337 11.3237 12.4087 11.682 12.3587C12.082 12.3004 12.907 11.8587 13.0737 11.3754C13.2487 10.892 13.2487 10.4837 13.1904 10.392C13.132 10.3004 13.007 10.2587 12.7987 10.1587Z" fill="#151515"/>
</svg>
