<svg width="20" height="16" viewBox="0 0 20 16" fill="none" xmlns="http://www.w3.org/2000/svg">
<path fill-rule="evenodd" clip-rule="evenodd" d="M8.4426 4.27454C8.21904 4.14041 7.94062 4.1369 7.71376 4.26534C7.4869 4.39379 7.34666 4.63434 7.34666 4.89505V10.6841C7.34666 10.9448 7.4869 11.1853 7.71376 11.3138C7.94062 11.4422 8.21904 11.4387 8.4426 11.3046L13.2668 8.41008C13.4848 8.2793 13.6181 8.04375 13.6181 7.78957C13.6181 7.53538 13.4848 7.29984 13.2668 7.16906L8.4426 4.27454ZM11.488 7.78957L8.79392 9.40602V6.17312L11.488 7.78957Z" fill="#151515"/>
<path fill-rule="evenodd" clip-rule="evenodd" d="M14.8538 0.689579C11.6229 0.436807 8.37714 0.436807 5.14623 0.689579L2.98431 0.858717C1.66965 0.96157 0.594159 1.94687 0.376841 3.24751C-0.125614 6.25471 -0.125614 9.32443 0.376841 12.3316C0.594159 13.6323 1.66965 14.6176 2.98431 14.7204L5.14623 14.8896C8.37714 15.1423 11.6229 15.1423 14.8538 14.8896L17.0157 14.7204C18.3304 14.6176 19.4058 13.6323 19.6232 12.3316C20.1256 9.32443 20.1256 6.25471 19.6232 3.24751C19.4058 1.94687 18.3303 0.96157 17.0157 0.858717L14.8538 0.689579ZM5.25911 2.13243C8.41489 1.88554 11.5851 1.88554 14.7409 2.13243L16.9028 2.30157C17.5547 2.35257 18.0879 2.84111 18.1957 3.48602C18.6718 6.3353 18.6718 9.24383 18.1957 12.0931C18.0879 12.738 17.5547 13.2266 16.9028 13.2776L14.7409 13.4467C11.5851 13.6936 8.41488 13.6936 5.25911 13.4467L3.09719 13.2776C2.44534 13.2266 1.91207 12.738 1.80431 12.0931C1.32824 9.24383 1.32824 6.3353 1.80431 3.48602C1.91207 2.84111 2.44534 2.35257 3.09719 2.30157L5.25911 2.13243Z" fill="#151515"/>
</svg>
